HIERARCHY
ROOT mixamorig:Hips
{
	OFFSET 0.000000 201.639420 0.000000
	CHANNELS 6 Xposition Yposition Zposition Xrotation Yrotation Zrotation
	JOINT mixamorig:Spine
	{
		OFFSET 0.006200 19.524994 -2.481800
		CHANNELS 3 Xrotation Yrotation Zrotation
		JOINT mixamorig:Spine1
		{
			OFFSET -0.000900 22.835007 -2.825400
			CHANNELS 3 Xrotation Yrotation Zrotation
			JOINT mixamorig:Spine2
			{
				OFFSET -0.020600 26.552490 -3.193300
				CHANNELS 3 Xrotation Yrotation Zrotation
				JOINT mixamorig:Neck
				{
					OFFSET -0.060000 30.701813 1.352200
					CHANNELS 3 Xrotation Yrotation Zrotation
					JOINT mixamorig:Head
					{
						OFFSET -0.087200 22.547607 3.670900
						CHANNELS 3 Xrotation Yrotation Zrotation
						JOINT mixamorig:HeadTop_End
						{
							OFFSET -0.830600 40.355194 7.893500
							CHANNELS 3 Xrotation Yrotation Zrotation
							End Site
							{
								OFFSET 0.000000 30.592346 0.000000
							}
						}
						JOINT mixamorig:RightEye
						{
							OFFSET -6.302100 18.118591 16.197100
							CHANNELS 3 Xrotation Yrotation Zrotation
							End Site
							{
								OFFSET 0.000000 30.592346 0.000000
							}
						}
						JOINT mixamorig:LeftEye
						{
							OFFSET 6.741500 18.382690 16.401899
							CHANNELS 3 Xrotation Yrotation Zrotation
							End Site
							{
								OFFSET 0.000000 30.592346 0.000000
							}
						}
					}
				}
				JOINT mixamorig:LeftShoulder
				{
					OFFSET 11.924900 18.230499 1.425400
					CHANNELS 3 Xrotation Yrotation Zrotation
					JOINT mixamorig:LeftArm
					{
						OFFSET 25.435989 -0.697632 -5.229300
						CHANNELS 3 Xrotation Yrotation Zrotation
						JOINT mixamorig:LeftForeArm
						{
							OFFSET 54.684776 0.000000 0.000000
							CHANNELS 3 Xrotation Yrotation Zrotation
							JOINT mixamorig:LeftHand
							{
								OFFSET 55.098175 0.000000 0.000000
								CHANNELS 3 Xrotation Yrotation Zrotation
								JOINT mixamorig:LeftHandMiddle1
								{
									OFFSET 23.369751 0.000000 0.000000
									CHANNELS 3 Xrotation Yrotation Zrotation
									JOINT mixamorig:LeftHandMiddle2
									{
										OFFSET 6.378677 0.000000 0.000000
										CHANNELS 3 Xrotation Yrotation Zrotation
										JOINT mixamorig:LeftHandMiddle3
										{
											OFFSET 6.148331 0.000000 0.000000
											CHANNELS 3 Xrotation Yrotation Zrotation
											JOINT mixamorig:LeftHandMiddle4
											{
												OFFSET 6.582504 0.000000 0.000000
												CHANNELS 3 Xrotation Yrotation Zrotation
												End Site
												{
													OFFSET -1.168900 6.395691 1.028606
												}
											}
										}
									}
								}
								JOINT mixamorig:LeftHandThumb1
								{
									OFFSET 7.235672 -3.848206 5.434273
									CHANNELS 3 Xrotation Yrotation Zrotation
									JOINT mixamorig:LeftHandThumb2
									{
										OFFSET 6.568451 -3.792297 3.792300
										CHANNELS 3 Xrotation Yrotation Zrotation
										JOINT mixamorig:LeftHandThumb3
										{
											OFFSET 6.063080 -3.500519 3.500518
											CHANNELS 3 Xrotation Yrotation Zrotation
											JOINT mixamorig:LeftHandThumb4
											{
												OFFSET 4.793182 -2.767334 2.767349
												CHANNELS 3 Xrotation Yrotation Zrotation
												End Site
												{
													OFFSET 0.101639 6.054260 1.275483
												}
											}
										}
									}
								}
								JOINT mixamorig:LeftHandIndex1
								{
									OFFSET 23.101074 -0.309540 4.992809
									CHANNELS 3 Xrotation Yrotation Zrotation
									JOINT mixamorig:LeftHandIndex2
									{
										OFFSET 6.226883 0.000000 0.000000
										CHANNELS 3 Xrotation Yrotation Zrotation
										JOINT mixamorig:LeftHandIndex3
										{
											OFFSET 6.094330 0.000000 0.000000
											CHANNELS 3 Xrotation Yrotation Zrotation
											JOINT mixamorig:LeftHandIndex4
											{
												OFFSET 5.482605 0.000000 0.000000
												CHANNELS 3 Xrotation Yrotation Zrotation
												End Site
												{
													OFFSET -1.427902 5.233032 0.797164
												}
											}
										}
									}
								}
								JOINT mixamorig:LeftHandRing1
								{
									OFFSET 22.299240 0.021149 -3.964172
									CHANNELS 3 Xrotation Yrotation Zrotation
									JOINT mixamorig:LeftHandRing2
									{
										OFFSET 6.321869 0.000000 0.000000
										CHANNELS 3 Xrotation Yrotation Zrotation
										JOINT mixamorig:LeftHandRing3
										{
											OFFSET 5.899796 0.000000 0.000000
											CHANNELS 3 Xrotation Yrotation Zrotation
											JOINT mixamorig:LeftHandRing4
											{
												OFFSET 6.517899 0.000000 0.000000
												CHANNELS 3 Xrotation Yrotation Zrotation
												End Site
												{
													OFFSET -1.637299 6.232208 0.980890
												}
											}
										}
									}
								}
								JOINT mixamorig:LeftHandPinky1
								{
									OFFSET 20.463791 -0.302338 -8.562233
									CHANNELS 3 Xrotation Yrotation Zrotation
									JOINT mixamorig:LeftHandPinky2
									{
										OFFSET 6.908646 0.000000 0.000000
										CHANNELS 3 Xrotation Yrotation Zrotation
										JOINT mixamorig:LeftHandPinky3
										{
											OFFSET 4.622849 0.000000 0.000000
											CHANNELS 3 Xrotation Yrotation Zrotation
											JOINT mixamorig:LeftHandPinky4
											{
												OFFSET 5.216080 0.000000 0.000000
												CHANNELS 3 Xrotation Yrotation Zrotation
												End Site
												{
													OFFSET -0.606308 5.116241 0.814926
												}
											}
										}
									}
								}
							}
						}
					}
				}
				JOINT mixamorig:RightShoulder
				{
					OFFSET -12.001300 18.284088 1.348900
					CHANNELS 3 Xrotation Yrotation Zrotation
					JOINT mixamorig:RightArm
					{
						OFFSET -25.308500 -0.751312 -5.164599
						CHANNELS 3 Xrotation Yrotation Zrotation
						JOINT mixamorig:RightForeArm
						{
							OFFSET -54.684429 0.000000 0.000000
							CHANNELS 3 Xrotation Yrotation Zrotation
							JOINT mixamorig:RightHand
							{
								OFFSET -55.150291 0.000000 0.000000
								CHANNELS 3 Xrotation Yrotation Zrotation
								JOINT mixamorig:RightHandMiddle1
								{
									OFFSET -23.317566 0.000000 0.000000
									CHANNELS 3 Xrotation Yrotation Zrotation
									JOINT mixamorig:RightHandMiddle2
									{
										OFFSET -6.378403 0.000000 0.000000
										CHANNELS 3 Xrotation Yrotation Zrotation
										JOINT mixamorig:RightHandMiddle3
										{
											OFFSET -6.148193 0.000000 0.000000
											CHANNELS 3 Xrotation Yrotation Zrotation
											JOINT mixamorig:RightHandMiddle4
											{
												OFFSET -6.583389 0.000000 0.000000
												CHANNELS 3 Xrotation Yrotation Zrotation
												End Site
												{
													OFFSET 1.171692 6.395905 1.029786
												}
											}
										}
									}
								}
								JOINT mixamorig:RightHandThumb1
								{
									OFFSET -7.190521 -3.860474 5.435846
									CHANNELS 3 Xrotation Yrotation Zrotation
									JOINT mixamorig:RightHandThumb2
									{
										OFFSET -6.567429 -3.791718 3.791708
										CHANNELS 3 Xrotation Yrotation Zrotation
										JOINT mixamorig:RightHandThumb3
										{
											OFFSET -6.062469 -3.500153 3.500166
											CHANNELS 3 Xrotation Yrotation Zrotation
											JOINT mixamorig:RightHandThumb4
											{
												OFFSET -4.792618 -2.767029 2.767022
												CHANNELS 3 Xrotation Yrotation Zrotation
												End Site
												{
													OFFSET -0.100327 6.053253 1.276754
												}
											}
										}
									}
								}
								JOINT mixamorig:RightHandIndex1
								{
									OFFSET -23.048981 -0.310791 4.992554
									CHANNELS 3 Xrotation Yrotation Zrotation
									JOINT mixamorig:RightHandIndex2
									{
										OFFSET -6.227539 0.000000 0.000000
										CHANNELS 3 Xrotation Yrotation Zrotation
										JOINT mixamorig:RightHandIndex3
										{
											OFFSET -6.095047 0.000000 0.000000
											CHANNELS 3 Xrotation Yrotation Zrotation
											JOINT mixamorig:RightHandIndex4
											{
												OFFSET -5.484772 0.000000 0.000000
												CHANNELS 3 Xrotation Yrotation Zrotation
												End Site
												{
													OFFSET 1.420593 5.237305 0.797056
												}
											}
										}
									}
								}
								JOINT mixamorig:RightHandRing1
								{
									OFFSET -22.246323 0.020569 -3.963762
									CHANNELS 3 Xrotation Yrotation Zrotation
									JOINT mixamorig:RightHandRing2
									{
										OFFSET -6.322128 0.000000 0.000000
										CHANNELS 3 Xrotation Yrotation Zrotation
										JOINT mixamorig:RightHandRing3
										{
											OFFSET -5.900024 0.000000 0.000000
											CHANNELS 3 Xrotation Yrotation Zrotation
											JOINT mixamorig:RightHandRing4
											{
												OFFSET -6.518356 0.000000 0.000000
												CHANNELS 3 Xrotation Yrotation Zrotation
												End Site
												{
													OFFSET 1.636398 6.232697 0.982186
												}
											}
										}
									}
								}
								JOINT mixamorig:RightHandPinky1
								{
									OFFSET -20.411011 -0.303314 -8.561701
									CHANNELS 3 Xrotation Yrotation Zrotation
									JOINT mixamorig:RightHandPinky2
									{
										OFFSET -6.907349 0.000000 0.000000
										CHANNELS 3 Xrotation Yrotation Zrotation
										JOINT mixamorig:RightHandPinky3
										{
											OFFSET -4.623840 0.000000 0.000000
											CHANNELS 3 Xrotation Yrotation Zrotation
											JOINT mixamorig:RightHandPinky4
											{
												OFFSET -5.218353 0.000000 0.000000
												CHANNELS 3 Xrotation Yrotation Zrotation
												End Site
												{
													OFFSET 0.602097 5.118835 0.816273
												}
											}
										}
									}
								}
							}
						}
					}
				}
			}
		}
	}
	JOINT mixamorig:LeftUpLeg
	{
		OFFSET 18.168400 -13.561905 -0.039000
		CHANNELS 3 Xrotation Yrotation Zrotation
		JOINT mixamorig:LeftLeg
		{
			OFFSET 0.577358 -80.825211 -3.695000
			CHANNELS 3 Xrotation Yrotation Zrotation
			JOINT mixamorig:LeftFoot
			{
				OFFSET -0.577356 -83.370262 -6.520700
				CHANNELS 3 Xrotation Yrotation Zrotation
				JOINT mixamorig:LeftToeBase
				{
					OFFSET 0.750401 -20.798306 25.135401
					CHANNELS 3 Xrotation Yrotation Zrotation
					JOINT mixamorig:LeftToe_End
					{
						OFFSET -0.000500 0.001200 19.917799
						CHANNELS 3 Xrotation Yrotation Zrotation
						End Site
						{
							OFFSET 0.000000 19.917805 0.000000
						}
					}
				}
			}
		}
	}
	JOINT mixamorig:RightUpLeg
	{
		OFFSET -18.162500 -13.585098 -0.041000
		CHANNELS 3 Xrotation Yrotation Zrotation
		JOINT mixamorig:RightLeg
		{
			OFFSET -0.595024 -80.945297 -3.631900
			CHANNELS 3 Xrotation Yrotation Zrotation
			JOINT mixamorig:RightFoot
			{
				OFFSET 0.595024 -83.218193 -6.561200
				CHANNELS 3 Xrotation Yrotation Zrotation
				JOINT mixamorig:RightToeBase
				{
					OFFSET -0.753601 -20.807106 25.115000
					CHANNELS 3 Xrotation Yrotation Zrotation
					JOINT mixamorig:RightToe_End
					{
						OFFSET 0.000299 0.001700 19.918200
						CHANNELS 3 Xrotation Yrotation Zrotation
						End Site
						{
							OFFSET 0.000000 19.918203 0.000000
						}
					}
				}
			}
		}
	}
}
MOTION
Frames: 4
Frame Time: 0.033333
10.868656 171.461472 2.428349 -3.444738 -43.272213 17.690407 0.326120 -1.956836 6.887784 0.008855 -1.473659 5.067618 -0.097760 -1.357206 5.060994 -11.461129 3.379988 8.129548 -19.689356 29.873871 -6.710961 -0.000001 0.000002 -0.000002 -0.000001 0.000002 -0.000002 -0.000001 0.000002 -0.000002 -0.523204 1.982633 14.254109 -33.955507 -33.004400 -47.813438 -0.000145 -86.879494 -0.000142 -22.914141 -10.853740 -3.366685 0.194900 1.629830 -13.637441 0.373658 2.241518 -18.925828 0.093853 1.135266 -9.451267 0.000001 0.000000 -0.000003 13.755201 -26.968691 7.460747 12.937812 36.701168 -28.194780 0.446155 16.339730 -9.804870 0.000003 0.000001 0.000000 0.195358 1.631709 -13.653431 0.373031 2.239693 -18.909821 0.093847 1.135268 -9.451265 -0.000001 -0.000001 -0.000002 0.195356 1.631715 -13.653429 0.373030 2.239696 -18.909816 0.093853 1.135264 -9.451273 -0.000001 -0.000001 -0.000002 1.138534 5.575258 -13.202324 0.374810 -1.817879 -19.393472 0.093851 1.135269 -9.451275 0.000000 -0.000000 -0.000001 -0.014618 -5.876566 7.311256 118.948182 72.140082 -83.791606 0.000012 26.008449 -0.000008 -19.255657 3.027356 -3.571587 3.635337 -6.110986 61.464456 7.728627 -6.904479 96.464442 2.305162 -5.174779 47.998745 0.000005 -0.000001 -0.000002 40.606591 -3.110521 26.124213 -37.849514 -44.265042 -46.874997 -12.282889 -22.415209 -17.633368 -0.000001 -0.000000 0.000001 3.635332 -6.110983 61.464463 7.728594 -6.904444 96.464435 2.305159 -5.174788 47.998745 0.000004 -0.000001 -0.000001 3.635337 -6.110995 61.464463 7.728621 -6.904483 96.464442 2.305138 -5.174766 47.998724 -0.000001 -0.000001 -0.000001 3.635328 -6.110985 61.464469 7.728621 -6.904470 96.464449 2.305149 -5.174773 47.998745 0.000003 -0.000002 0.000001 -28.657032 32.413800 -1.522767 59.517961 3.530970 3.702993 -21.146827 19.438544 -5.442142 -0.000038 0.000006 -0.000003 -0.000000 -0.000000 -0.000000 -36.494397 9.995072 -35.753861 65.861144 4.009393 -9.138288 -23.919686 -6.586148 20.306885 -1.650087 0.000009 -0.000011 -0.000000 0.000000 -0.000000 
12.580410 172.523773 2.621571 -1.801508 -42.302616 18.844953 0.413317 -1.450869 6.852083 0.109618 -1.093433 5.038405 0.003383 -0.991289 5.024170 -11.387620 3.381466 7.159739 -18.907617 28.495394 -7.297027 -0.000001 0.000001 0.000000 -0.000001 0.000001 0.000000 -0.000001 0.000001 0.000000 -0.666516 2.629256 13.591594 -31.982702 -33.464819 -46.826838 0.001278 -90.135384 0.001167 -24.525795 -11.360585 -3.003905 0.221403 1.735382 -14.539982 0.396261 2.306336 -19.495450 0.099570 1.169102 -9.735759 0.000001 0.000000 0.000004 14.823128 -27.019568 6.594708 14.075487 36.237005 -28.379836 1.006696 16.226294 -9.822379 -0.000002 0.000002 -0.000004 0.221889 1.737250 -14.555977 0.395615 2.304516 -19.479435 0.099571 1.169100 -9.735742 -0.000001 -0.000000 0.000004 0.221888 1.737254 -14.555977 0.395613 2.304522 -19.479443 0.099572 1.169097 -9.735741 0.000000 -0.000001 0.000004 1.227477 5.665446 -14.110511 0.397937 -1.753249 -19.961469 0.099567 1.169105 -9.735752 -0.000001 -0.000001 0.000006 0.002121 -5.873564 7.519611 118.217939 71.390824 -83.878568 0.000009 25.247214 -0.000017 -19.937565 4.622011 -2.706681 3.635325 -6.110985 61.464456 7.728632 -6.904485 96.464435 2.305163 -5.174782 47.998745 -0.000001 0.000001 -0.000002 40.606595 -3.110520 26.124219 -37.849517 -44.265035 -46.874997 -12.282889 -22.415206 -17.633368 -0.000002 0.000000 -0.000000 3.635328 -6.110980 61.464463 7.728597 -6.904443 96.464442 2.305154 -5.174788 47.998751 0.000005 -0.000004 -0.000002 3.635327 -6.110996 61.464463 7.728618 -6.904472 96.464442 2.305134 -5.174767 47.998724 0.000001 -0.000002 -0.000001 3.635318 -6.110983 61.464463 7.728625 -6.904471 96.464449 2.305149 -5.174775 47.998745 0.000004 0.000001 -0.000001 -29.433884 31.332895 -2.686042 58.181129 3.840839 2.606058 -20.565906 19.528062 -4.366774 -0.000038 0.000006 -0.000003 0.000000 -0.000000 -0.000000 -37.991609 9.944334 -35.375199 64.632830 3.682969 -9.143039 -22.678832 -5.866263 20.210436 -2.335986 0.000015 0.000004 -0.000000 -0.000000 0.000000 
14.177090 174.206528 2.536255 -0.027098 -41.417345 19.996475 0.530784 -0.937488 6.740878 0.221267 -0.707070 4.985751 0.119489 -0.619315 4.967321 -11.308560 3.456632 6.487305 -18.395595 27.919860 -7.992507 0.000002 -0.000001 0.000001 0.000002 -0.000001 0.000001 0.000002 -0.000001 0.000001 -0.855019 3.508196 12.729198 -30.092325 -33.956986 -46.177355 -0.000809 -91.824394 -0.000809 -24.214373 -12.569601 -2.924847 0.249322 1.839642 -15.435208 0.419308 2.370387 -20.060455 0.105406 1.202638 -10.017917 -0.000000 0.000002 0.000001 15.817145 -27.090646 5.616638 15.191637 35.769813 -28.548386 1.561787 16.112339 -9.838308 -0.000001 -0.000002 0.000002 0.249841 1.841502 -15.451201 0.418649 2.368580 -20.044452 0.105407 1.202637 -10.017915 0.000000 -0.000000 -0.000002 0.249839 1.841507 -15.451206 0.418646 2.368583 -20.044445 0.105411 1.202635 -10.017922 -0.000002 0.000000 0.000003 1.317110 5.753495 -15.011506 0.421498 -1.689382 -20.524838 0.105407 1.202637 -10.017917 0.000000 0.000001 -0.000000 0.021387 -5.781674 7.560415 117.894406 69.948063 -84.784047 -0.000010 24.334955 0.000008 -22.010063 7.080832 -1.075477 3.635325 -6.110985 61.464449 7.728632 -6.904485 96.464442 2.305170 -5.174785 47.998745 0.000001 -0.000000 0.000001 40.606591 -3.110520 26.124219 -37.849514 -44.265032 -46.874997 -12.282891 -22.415211 -17.633373 0.000000 0.000000 0.000000 3.635329 -6.110981 61.464463 7.728596 -6.904444 96.464442 2.305156 -5.174787 47.998745 0.000002 0.000001 -0.000003 3.635334 -6.110996 61.464456 7.728619 -6.904475 96.464442 2.305132 -5.174765 47.998724 0.000003 -0.000001 0.000001 3.635319 -6.110980 61.464463 7.728624 -6.904472 96.464449 2.305153 -5.174772 47.998745 0.000001 0.000000 0.000002 -29.883000 30.974840 -3.729872 55.844610 4.231915 1.987098 -19.388141 19.045387 -3.494555 -0.000038 0.000006 -0.000003 -0.000000 0.000000 -0.000000 -40.011241 9.123296 -34.923751 62.836395 3.264505 -9.229338 -21.187433 -4.062832 19.732123 -3.094839 0.000010 0.000001 -0.000000 0.000001 0.000000 
15.535343 176.126282 2.254131 1.488120 -40.412010 20.800002 0.669522 -0.499860 6.606723 0.335863 -0.375921 4.922665 0.239864 -0.297887 4.903493 -11.127714 3.531599 6.109233 -18.120625 27.765713 -8.533123 0.000000 0.000002 -0.000001 0.000000 0.000002 -0.000001 0.000000 0.000002 -0.000001 -0.976379 4.117339 12.010406 -28.635015 -34.423187 -45.708992 0.001389 -91.561561 0.001439 -22.594389 -13.557985 -2.163578 0.278495 1.942136 -16.319173 0.442685 2.433399 -20.618316 0.111335 1.235713 -10.296474 -0.000001 -0.000001 0.000004 16.753754 -27.178578 4.582808 16.281759 35.302031 -28.700178 2.108949 15.998369 -9.852646 0.000003 -0.000003 0.000000 0.279035 1.943989 -16.335171 0.442009 2.431594 -20.602306 0.111337 1.235712 -10.296488 0.000001 -0.000002 0.000003 0.279035 1.943995 -16.335168 0.442009 2.431599 -20.602315 0.111336 1.235714 -10.296485 -0.000000 -0.000001 -0.000000 1.406979 5.839037 -15.901343 0.445379 -1.626564 -21.081017 0.111334 1.235715 -10.296462 -0.000001 -0.000001 -0.000002 0.039912 -5.652266 7.510824 118.646000 67.930282 -87.001085 0.000008 22.806519 -0.000007 -25.304164 9.904239 0.331880 3.635328 -6.110986 61.464449 7.728631 -6.904485 96.464442 2.305162 -5.174785 47.998745 0.000000 -0.000000 -0.000002 40.606591 -3.110520 26.124220 -37.849517 -44.265035 -46.874997 -12.282891 -22.415211 -17.633370 -0.000002 0.000001 -0.000000 3.635330 -6.110983 61.464463 7.728595 -6.904438 96.464442 2.305160 -5.174787 47.998748 -0.000005 -0.000000 -0.000001 3.635335 -6.110998 61.464456 7.728619 -6.904479 96.464442 2.305139 -5.174766 47.998724 0.000001 -0.000001 -0.000000 3.635323 -6.110983 61.464463 7.728622 -6.904469 96.464442 2.305146 -5.174772 47.998748 0.000000 0.000001 0.000002 -29.990609 31.120398 -4.599441 53.038144 4.518603 1.899651 -17.894647 18.095913 -2.819763 -0.000038 0.000006 -0.000003 0.000000 -0.000000 0.000000 -42.074426 7.671905 -34.491933 60.702056 3.082703 -9.350608 -19.410377 -2.193748 18.964270 -3.538880 -0.000004 0.000018 -0.000000 -0.000001 -0.000000 
